<?xml version="1.0" ?><svg data-name="Layer 11" id="Layer_11" viewBox="0 0 50 50" xmlns="http://www.w3.org/2000/svg"><defs><style>.cls-1{fill:#010101;}</style></defs><title/><path class="cls-1" d="M42,22.1V18.2C42,9.3,34.4,2,25,2S8,9.3,8,18.2v3.9A7,7,0,0,0,2,29v2a7,7,0,0,0,7,7h3a2,2,0,0,0,2-2V24a2,2,0,0,0-2-2V18.2C12,11.5,17.8,6,25,6s13,5.5,13,12.2V22a2,2,0,0,0-2,2V36a2,2,0,0,0,.5,1.3,19.8,19.8,0,0,1-9.4,3.5,3,3,0,1,0,.2,4,23,23,0,0,0,14.2-6.5l0.3-.4A7,7,0,0,0,48,31V29A7,7,0,0,0,42,22.1ZM10,34H9a3,3,0,0,1-3-3V29a3,3,0,0,1,3-3h1v8Zm34-3a3,3,0,0,1-3,3H40V26h1a3,3,0,0,1,3,3v2Z"/></svg>